<svg aria-hidden="true" data-icon="ait" role="img" viewBox="0 0 169 154" fill="none" xmlns="http://www.w3.org/2000/svg">
    <path fill="currentColor" d="M101.231 64.218C100.893 63.8792 100.555 63.5404 100.183 63.2016C85.1759 49.5264 70.1687 35.8512 55.1615 22.176C50.8013 18.2336 49.4155 13.5828 51.4773 8.28518C54.6883 -2.41657e-05 66.3155 -2.67962 73.5825 3.11078C74.0219 3.48038 74.4613 3.84998 74.9007 4.25038C97.9861 25.256 121.038 46.2616 144.123 67.298C149.632 72.3184 150.139 78.0472 147.503 83.006C146.388 85.1004 144.562 86.6096 142.636 88.0572C139.898 89.9668 136.788 90.4288 133.476 90.1516C129.488 89.628 126.446 87.6876 123.64 85.0696C116.61 78.5092 109.444 72.1028 102.346 65.6348C101.907 65.1728 101.332 64.8648 101.231 64.218Z" />
    <path fill="currentColor" d="M133.206 89.782C136.552 90.1208 139.661 89.3508 142.636 88.0264C142.332 88.3344 142.027 88.6732 141.723 88.9504C119.483 109.186 97.2424 129.422 75.0696 149.719C71.5882 152.891 67.566 154.339 62.6312 153.908C56.6824 153.384 51.2068 148.333 50.666 142.912C50.2266 138.538 51.7814 134.904 55.1952 131.824C70.1348 118.272 85.0406 104.658 99.9802 91.0756C100.352 90.7368 100.859 90.4904 101.332 90.2132C101.231 90.0592 101.163 89.9052 101.062 89.782C100.555 89.782 100.014 89.782 99.507 89.782C78.551 89.782 57.595 89.782 36.639 89.782C35.9968 89.782 35.3546 89.9052 34.7124 89.6588C35.4222 88.9812 36.3348 89.1968 37.1798 89.1968C51.511 89.1968 65.8422 89.1968 80.2072 89.1968C85.6828 89.1968 91.1584 89.0736 96.6002 89.2276C107.551 89.5664 118.469 89.3816 129.386 89.474C130.671 89.4432 131.921 89.6896 133.206 89.782Z"/>
    <path fill="currentColor" d="M133.206 89.781C122.998 89.781 112.791 89.9966 102.617 89.7502C90.7192 89.473 78.8216 89.6578 66.9578 89.5962C56.7164 89.5346 46.475 89.5962 36.2336 89.5962C35.7266 89.5962 35.2196 89.627 34.7126 89.627C27.4456 89.5038 21.5982 84.1138 21.294 77.2454C20.9898 70.9314 26.6682 65.0178 33.5972 64.4018C34.7464 64.3094 35.8956 64.2479 37.0448 64.2479C57.798 64.2479 78.585 64.2479 99.3382 64.2479C99.9804 64.2479 100.623 64.217 101.265 64.1862C105.929 68.4058 110.56 72.5946 115.224 76.8142C117.928 79.2474 120.7 81.6498 123.269 84.2062C126.006 86.9782 129.048 89.165 133.206 89.781Z"/>
    </svg>
    